/* XPM */
static char *result[] = {
/* columns rows colors chars-per-pixel */
"64 64 11 1 ",
"  c black",
". c #1A6303",
"X c #237E06",
"o c #F01212",
"O c #965718",
"+ c #2AB001",
"@ c #34D203",
"# c #72F749",
"$ c #FFB502",
"% c #9110EC",
"& c white",
/* pixels */
"@@@@@@@@@@@@@@@@@@@@@@@@@@@@@@@@@@@@@@@@@@@@@@@@@@@@@@@@@@@@@@@@",
"@@@@@@@@@@@@@@@@@@@@@@@@@@@@@@@@@@@@@@@@@@@@@@@@@@@@@@@@@@@@@@@@",
"@@@@@@@@XX@@@@@@@@@@@@@@@@            @@@@@@@@@@@@@@@@@@@@@@@@@@",
"@@@@@@@@XX@@@@@@@@@@@@@@@@            @@@@@@@@@@@@@@@@@@@@@@@@@@",
"@@@@@@XX##XX@@@@@@@@@@@@                @@@@@@@@@@@@@@@@@@@@@@@@",
"@@@@@@XX##XX@@@@@@@@@@@@                @@@@@@@@@@@@@@@@@@@@@@@@",
"XXXX@@..++..@@XXXX@@@@                    @@@@@@@@@@@@@@@@@@@@@@",
"XXXX@@..++..@@XXXX@@@@                    @@@@@@@@@@@@@@@@@@@@@@",
"..##....++....##..@@                        @@@@@@XX@@@@@@@@@@@@",
"..##....++....##..@@                        @@@@@@XX@@@@@@@@@@@@",
"@@..++..++..++..@@@@                        @@@@XX##XX@@@@@@@@@@",
"@@..++..++..++..@@@@                        @@@@XX##XX@@@@@@@@@@",
"@@@@@@@@@@@@@@@@@@@@                        XX@@..++..@@XXXX@@@@",
"@@@@@@@@@@@@@@@@@@@@                        XX@@..++..@@XXXX@@@@",
"@@@@@@@@@@@@@@@@@@@@                        ##....++....##..@@@@",
"@@@@@@@@@@@@@@@@@@@@                        ##....++....##..@@@@",
"@@@@@@@@@@@@@@@@@@@@oooooooooooooooooooooooo..++..++..++..@@@@@@",
"@@@@@@@@@@@@@@@@@@@@oooooooooooooooooooooooo..++..++..++..@@@@@@",
"@@@@@@@@@@@@@@@@@@@@oooooooooooooooooooooooo@@@@@@@@@@@@@@@@@@@@",
"@@@@@@@@@@@@@@@@@@@@oooooooooooooooooooooooo@@@@@@@@@@@@@@@@@@@@",
"@@@@@@@@@@@@@@@@@@@@@@    OOOO  OO  OO    @@@@@@@@@@@@@@@@@@@@@@",
"@@@@@@@@@@@@@@@@@@@@@@    OOOO  OO  OO    @@@@@@@@@@@@@@@@@@@@@@",
"@@@@@@@@@@@@@@@@@@XX@@@@  OOOO  OO  OO  @@@@@@@@@@@@@@@@@@@@@@@@",
"@@@@@@@@@@@@@@@@@@XX@@@@  OOOO  OO  OO  @@@@@@@@@@@@@@@@@@@@@@@@",
"@@@@@@@@@@@@@@@@XX##XX@@  OOOOOOOOOOOO  @@@@@@@@@@@@@@@@@@@@@@@@",
"@@@@@@@@@@@@@@@@XX##XX@@  OOOOOOOOOOOO  @@@@@@@@@@@@@@@@@@@@@@@@",
"@@@@@@@@@@XXXX@@..++..@@  OOOO      OO  @@@@@@@@@@@@@@@@@@@@@@@@",
"@@@@@@@@@@XXXX@@..++..@@  OOOO      OO  @@@@@@@@@@@@@@@@@@@@@@@@",
"@@@@@@@@@@..##....++....##  OOOOOOOO  @@@@@@@@@@@@@@@@@@@@@@@@@@",
"@@@@@@@@@@..##....++....##  OOOOOOOO  @@@@@@@@@@@@@@@@@@@@@@@@@@",
"@@@@@@@@@@@@..++..++..++..          @@@@@@XXXX@@@@@@@@@@@@@@@@@@",
"@@@@@@@@@@@@..++..++..++..          @@@@@@XXXX@@@@@@@@@@@@@@@@@@",
"@@@@@@@@@@@@@@@@@@@@@@@@  $$OOOOOO$$  @@XX##XX@@@@@@@@@@@@@@@@@@",
"@@@@@@@@@@@@@@@@@@@@@@@@  $$OOOOOO$$  @@XX##XX@@@@@@@@@@@@@@@@@@",
"@@@@@@@@@@@@@@@@@@@@@@  $$&&$$OO$$&&$$  ##XX@@@@@@@@@@@@@@@@@@@@",
"@@@@@@@@@@@@@@@@@@@@@@  $$&&$$OO$$&&$$  ##XX@@@@@@@@@@@@@@@@@@@@",
"@@@@@@@@@@@@@@@@@@@@  OO$$$$&&$$&&$$$$OO  ..@@XXXX@@@@@@@@@@@@@@",
"@@@@@@@@@@@@@@@@@@@@  OO$$$$&&$$&&$$$$OO  ..@@XXXX@@@@@@@@@@@@@@",
"@@@@@@@@@@@@@@@@@@@@  OOOO$$&&&&&&$$OOOO  ....##..@@@@@@@@@@@@@@",
"@@@@@@@@@@@@@@@@@@@@  OOOO$$&&&&&&$$OOOO  ....##..@@@@@@@@@@@@@@",
"@@@@@@@@@@@@@@@@@@@@  OOOO$$&&oo&&$$OOOO  ..++..@@@@@@@@@@@@@@@@",
"@@@@@@@@@@@@@@@@@@@@  OOOO$$&&oo&&$$OOOO  ..++..@@@@@@@@@@@@@@@@",
"@@@@@@@@@@@@@@@@@@@@  OO$$&&oooo&&&&$$OO  @@@@@@@@@@@@@@@@@@@@@@",
"@@@@@@@@@@@@@@@@@@@@  OO$$&&oooo&&&&$$OO  @@@@@@@@@@@@@@@@@@@@@@",
"@@@@@@@@XXXX@@@@@@@@  OO$$&&&&oo&&&&$$OO  @@@@@@@@@@@@@@@@@@@@@@",
"@@@@@@@@XXXX@@@@@@@@  OO$$&&&&oo&&&&$$OO  @@@@@@@@@@@@@@@@@@@@@@",
"@@@@@@@@XX##XX@@@@@@  OO$$&&oooooo&&$$OO  @@@@@@@@@@@@@@@@@@@@@@",
"@@@@@@@@XX##XX@@@@@@  OO$$&&oooooo&&$$OO  @@@@@@@@@@@@@@@@@@@@@@",
"@@@@@@@@@@XX##XX@@@@@@  $$&&&&&&&&&&$$  @@@@@@@@@@@@@@XX@@@@@@@@",
"@@@@@@@@@@XX##XX@@@@@@  $$&&&&&&&&&&$$  @@@@@@@@@@@@@@XX@@@@@@@@",
"@@@@XXXX@@..++..@@XXXX  $$$$$$$$$$$$$$  @@@@@@@@@@@@XX##XX@@@@@@",
"@@@@XXXX@@..++..@@XXXX  $$$$$$$$$$$$$$  @@@@@@@@@@@@XX##XX@@@@@@",
"@@@@..##....++....##..  OOOO      OOOO  @@@@@@XXXX@@..++..@@XXXX",
"@@@@..##....++....##..  OOOO      OOOO  @@@@@@XXXX@@..++..@@XXXX",
"@@@@@@..++..++..++..        @@@@@@        @@@@..##....++....##..",
"@@@@@@..++..++..++..        @@@@@@        @@@@..##....++....##..",
"@@@@@@@@@@@@@@@@@@  %%%%%%  @@@@@@  %%%%%%  @@@@..++..++..++..@@",
"@@@@@@@@@@@@@@@@@@  %%%%%%  @@@@@@  %%%%%%  @@@@..++..++..++..@@",
"@@@@@@@@@@@@@@@@@@@@      @@@@@@@@@@      @@@@@@@@@@@@@@@@@@@@@@",
"@@@@@@@@@@@@@@@@@@@@      @@@@@@@@@@      @@@@@@@@@@@@@@@@@@@@@@",
"@@@@@@@@@@@@@@@@@@@@@@@@@@@@@@@@@@@@@@@@@@@@@@@@@@@@@@@@@@@@@@@@",
"@@@@@@@@@@@@@@@@@@@@@@@@@@@@@@@@@@@@@@@@@@@@@@@@@@@@@@@@@@@@@@@@",
"@@@@@@@@@@@@@@@@@@@@@@@@@@@@@@@@@@@@@@@@@@@@@@@@@@@@@@@@@@@@@@@@",
"@@@@@@@@@@@@@@@@@@@@@@@@@@@@@@@@@@@@@@@@@@@@@@@@@@@@@@@@@@@@@@@@"
};
