/* XPM */
static char *result[] = {
/* columns rows colors chars-per-pixel */
"64 64 10 1 ",
"  c black",
". c #1A6303",
"X c #237E06",
"o c #2AB001",
"O c #2DBC00",
"+ c #34D203",
"@ c #72F749",
"# c #C88918",
"$ c #DE9F2E",
"% c #E2B056",
/* pixels */
"++++++++++++++++++++++++++++++++++++++++++++++++++++++++++++++++",
"++++++++++++++++++++++++++++++++++++++++++++++++++++++++++++++++",
"++++++++XX++++++++++++++++++++++++++++++++++++++++++++++++++++++",
"++++++++XX++++++++++++++++++++++++++++++++++++++++++++++++++++++",
"++++++XX@@XX++++++++++++++++++++++++++++++++++++++++++++++++++++",
"++++++XX@@XX++++++++++++++++++++++++++++++++++++++++++++++++++++",
"XXXX++..oo..++XXXX++++++++++++++++++++++++++++++++++++++++++++++",
"XXXX++..oo..++XXXX++++++++++++++++++++++++++++++++++++++++++++++",
"..@@....oo....@@..++++++++++++++++++++++++++++++++XX++++++++++++",
"..@@....oo....@@..++++++++++++++++++++++++++++++++XX++++++++++++",
"++..oo..oo..oo..++++++++++++++++++++++++++++++++XX@@XX++++++++++",
"++..oo..oo..oo..++++++++++++++++++++++++++++++++XX@@XX++++++++++",
"++++++++++++++++++++++++++++++++++++++++++XXXX++..oo..++XXXX++++",
"++++++++++++++++++++++++++++++++++++++++++XXXX++..oo..++XXXX++++",
"++++++++++++++++++++++++++++++++++++++++++..@@....oo....@@..++++",
"++++++++++++++++++++++++++++++++++++++++++..@@....oo....@@..++++",
"++++++++++++++++++++++++++++++++++++++++++++..oo..oo..oo..++++++",
"++++++++++++++++++++++++++++++++++++++++++++..oo..oo..oo..++++++",
"++++++++++++++++++++++++          ++++++++++++++++++++++++++++++",
"++++++++++++++++++++++++          ++++++++++++++++++++++++++++++",
"++++++++++++++++++++++  %%%%  $$$$  ++++++++++++++++++++++++++++",
"++++++++++++++++++++++  %%%%  $$$$  ++++++++++++++++++++++++++++",
"++++++++++++++++++XX  %%  $$  $$  $$  ++++++++++++++++++++++++++",
"++++++++++++++++++XX  %%  $$  $$  $$  ++++++++++++++++++++++++++",
"++++++++++++++++XX  %%$$$$      $$$$##  ++++++++++++++++++++++++",
"++++++++++++++++XX  %%$$$$      $$$$##  ++++++++++++++++++++++++",
"++++++++++XXXX++..  %%$$$$$$  $$$$$$##  ++++++++++++++++++++++++",
"++++++++++XXXX++..  %%$$$$$$  $$$$$$##  ++++++++++++++++++++++++",
"++++++++++..@@....                      ++++++++++++++++++++++++",
"++++++++++..@@....                      ++++++++++++++++++++++++",
"++++++++++++..oo..  %%$$$$$$  $$$$$$##  ++XXXX++++++++++++++++++",
"++++++++++++..oo..  %%$$$$$$  $$$$$$##  ++XXXX++++++++++++++++++",
"++++++++++++++++++  %%$$$$      $$$$##  XX@@XX++++++++++++++++++",
"++++++++++++++++++  %%$$$$      $$$$##  XX@@XX++++++++++++++++++",
"++++++++++++++++++++  $$  $$  $$  ##  XX@@XX++++++++++++++++++++",
"++++++++++++++++++++  $$  $$  $$  ##  XX@@XX++++++++++++++++++++",
"++++++++++++++++++++++  $$$$  ####  ++..oo..++XXXX++++++++++++++",
"++++++++++++++++++++++  $$$$  ####  ++..oo..++XXXX++++++++++++++",
"++++++++++++++++++++++++          @@....oo....@@..++++++++++++++",
"++++++++++++++++++++++++          @@....oo....@@..++++++++++++++",
"++++++++++++++++++++++++++OOOOOOOO..oo..oo..oo..++++++++++++++++",
"++++++++++++++++++++++++++OOOOOOOO..oo..oo..oo..++++++++++++++++",
"++++++++++++++++++++++++++++OOOOOOOO++++++++++++++++++++++++++++",
"++++++++++++++++++++++++++++OOOOOOOO++++++++++++++++++++++++++++",
"++++++++XXXX++++++++++++++++++++++++++++++++++++++++++++++++++++",
"++++++++XXXX++++++++++++++++++++++++++++++++++++++++++++++++++++",
"++++++++XX@@XX++++++++++++++++++++++++++++++++++++++++++++++++++",
"++++++++XX@@XX++++++++++++++++++++++++++++++++++++++++++++++++++",
"++++++++++XX@@XX++++++++++++++++++++++++++++++++++++++XX++++++++",
"++++++++++XX@@XX++++++++++++++++++++++++++++++++++++++XX++++++++",
"++++XXXX++..oo..++XXXX++++++++++++++++++++++++++++++XX@@XX++++++",
"++++XXXX++..oo..++XXXX++++++++++++++++++++++++++++++XX@@XX++++++",
"++++..@@....oo....@@..++++++++++++++++++++++++XXXX++..oo..++XXXX",
"++++..@@....oo....@@..++++++++++++++++++++++++XXXX++..oo..++XXXX",
"++++++..oo..oo..oo..++++++++++++++++++++++++++..@@....oo....@@..",
"++++++..oo..oo..oo..++++++++++++++++++++++++++..@@....oo....@@..",
"++++++++++++++++++++++++++++++++++++++++++++++++..oo..oo..oo..++",
"++++++++++++++++++++++++++++++++++++++++++++++++..oo..oo..oo..++",
"++++++++++++++++++++++++++++++++++++++++++++++++++++++++++++++++",
"++++++++++++++++++++++++++++++++++++++++++++++++++++++++++++++++",
"++++++++++++++++++++++++++++++++++++++++++++++++++++++++++++++++",
"++++++++++++++++++++++++++++++++++++++++++++++++++++++++++++++++",
"++++++++++++++++++++++++++++++++++++++++++++++++++++++++++++++++",
"++++++++++++++++++++++++++++++++++++++++++++++++++++++++++++++++"
};
