/* XPM */
static char *result[] = {
/* columns rows colors chars-per-pixel */
"64 64 10 1 ",
"  c black",
". c #1A6303",
"X c #237E06",
"o c #BC7206",
"O c #2AA005",
"+ c #2AB001",
"@ c #34D203",
"# c #72F749",
"$ c #E29320",
"% c #D3A35F",
/* pixels */
"@@@@@@@@@@@@@@@@@@@@@@@@@@@@@@@@@@@@@@@@@@@@@@@@@@@@@@@@@@@@@@@@",
"@@@@@@@@@@@@@@@@@@@@@@@@@@@@@@@@@@@@@@@@@@@@@@@@@@@@@@@@@@@@@@@@",
"@@@@@@@@XX@@@@@@@@@@@@@@@@@@@@@@@@@@@@@@@@@@@@@@@@@@@@@@@@@@@@@@",
"@@@@@@@@XX@@@@@@@@@@@@@@@@@@@@@@@@@@@@@@@@@@@@@@@@@@@@@@@@@@@@@@",
"@@@@@@XX##XX@@@@@@@@@@@@@@@@@@@@@@@@@@@@@@@@@@@@@@@@@@@@@@@@@@@@",
"@@@@@@XX##XX@@@@@@@@@@@@@@@@@@@@@@@@@@@@@@@@@@@@@@@@@@@@@@@@@@@@",
"XXXX@@..++..@@XXXX@@@@@@@@@@@@@@@@@@@@@@@@@@@@@@@@@@@@@@@@@@@@@@",
"XXXX@@..++..@@XXXX@@@@@@@@@@@@@@@@@@@@@@@@@@@@@@@@@@@@@@@@@@@@@@",
"..##....++....##..@@@@@@@@@@@@@@@@@@@@@@@@@@@@@@@@XX@@@@@@@@@@@@",
"..##....++....##..@@@@@@@@@@@@@@@@@@@@@@@@@@@@@@@@XX@@@@@@@@@@@@",
"@@..++..++..++..@@@@@@@@@@              @@@@@@@@XX##XX@@@@@@@@@@",
"@@..++..++..++..@@@@@@@@@@              @@@@@@@@XX##XX@@@@@@@@@@",
"@@@@@@@@@@@@@@@@@@@@@@    %%%%%%  $$$$$$    XX@@..++..@@XXXX@@@@",
"@@@@@@@@@@@@@@@@@@@@@@    %%%%%%  $$$$$$    XX@@..++..@@XXXX@@@@",
"@@@@@@@@@@@@@@@@@@@@  %%%%$$$$$$  $$$$$$$$$$  ....++....##..@@@@",
"@@@@@@@@@@@@@@@@@@@@  %%%%$$$$$$  $$$$$$$$$$  ....++....##..@@@@",
"@@@@@@@@@@@@@@@@      %%$$$$$$$$  $$$$$$$$$$      ++..++..@@@@@@",
"@@@@@@@@@@@@@@@@      %%$$$$$$$$  $$$$$$$$$$      ++..++..@@@@@@",
"@@@@@@@@@@@@@@@@  %%%%  $$$$$$$$  $$$$$$$$  $$$$  @@@@@@@@@@@@@@",
"@@@@@@@@@@@@@@@@  %%%%  $$$$$$$$  $$$$$$$$  $$$$  @@@@@@@@@@@@@@",
"@@@@@@@@@@@@@@  %%$$$$$$  $$$$$$  $$$$$$  $$$$$$$$  @@@@@@@@@@@@",
"@@@@@@@@@@@@@@  %%$$$$$$  $$$$$$  $$$$$$  $$$$$$$$  @@@@@@@@@@@@",
"@@@@@@@@@@@@  %%$$$$$$$$$$              $$$$$$$$$$$$  @@@@@@@@@@",
"@@@@@@@@@@@@  %%$$$$$$$$$$              $$$$$$$$$$$$  @@@@@@@@@@",
"@@@@@@@@@@@@  %%$$$$$$$$$$$$$$$$  $$$$$$$$$$$$$$$$$$  @@@@@@@@@@",
"@@@@@@@@@@@@  %%$$$$$$$$$$$$$$$$  $$$$$$$$$$$$$$$$$$  @@@@@@@@@@",
"@@@@@@@@@@  %%$$$$$$$$$$$$$$$$$$  $$$$$$$$$$$$$$$$$$oo  @@@@@@@@",
"@@@@@@@@@@  %%$$$$$$$$$$$$$$$$$$  $$$$$$$$$$$$$$$$$$oo  @@@@@@@@",
"@@@@@@@@@@  %%$$$$$$$$$$$$$$$$$$  $$$$$$$$$$$$$$$$$$oo  @@@@@@@@",
"@@@@@@@@@@  %%$$$$$$$$$$$$$$$$$$  $$$$$$$$$$$$$$$$$$oo  @@@@@@@@",
"@@@@@@@@@@  %%$$$$$$$$$$$$$$$$$$  $$$$$$$$$$$$$$$$$$oo  @@@@@@@@",
"@@@@@@@@@@  %%$$$$$$$$$$$$$$$$$$  $$$$$$$$$$$$$$$$$$oo  @@@@@@@@",
"@@@@@@@@@@                                              @@@@@@@@",
"@@@@@@@@@@                                              @@@@@@@@",
"@@@@@@@@@@  %%$$$$$$$$$$$$$$$$$$  $$$$$$$$$$$$$$$$$$oo  @@@@@@@@",
"@@@@@@@@@@  %%$$$$$$$$$$$$$$$$$$  $$$$$$$$$$$$$$$$$$oo  @@@@@@@@",
"@@@@@@@@@@  %%$$$$$$$$$$$$$$$$$$  $$$$$$$$$$$$$$$$$$oo  @@@@@@@@",
"@@@@@@@@@@  %%$$$$$$$$$$$$$$$$$$  $$$$$$$$$$$$$$$$$$oo  @@@@@@@@",
"@@@@@@@@@@  %%$$$$$$$$$$$$$$$$$$  $$$$$$$$$$$$$$$$$$oo  @@@@@@@@",
"@@@@@@@@@@  %%$$$$$$$$$$$$$$$$$$  $$$$$$$$$$$$$$$$$$oo  @@@@@@@@",
"@@@@@@@@@@@@  $$$$$$$$$$$$$$$$$$  $$$$$$$$$$$$$$$$oo  @@@@@@@@@@",
"@@@@@@@@@@@@  $$$$$$$$$$$$$$$$$$  $$$$$$$$$$$$$$$$oo  @@@@@@@@@@",
"@@@@@@@@@@@@  $$$$$$$$$$$$              $$$$$$$$$$oo  @@@@@@@@@@",
"@@@@@@@@@@@@  $$$$$$$$$$$$              $$$$$$$$$$oo  @@@@@@@@@@",
"@@@@@@@@XXXX@@  $$$$$$$$  $$$$$$  $$$$$$  $$$$$$oo  @@@@@@@@@@@@",
"@@@@@@@@XXXX@@  $$$$$$$$  $$$$$$  $$$$$$  $$$$$$oo  @@@@@@@@@@@@",
"@@@@@@@@XX##XX@@  $$$$  $$$$$$$$  $$$$$$$$  oooo  @@@@@@@@@@@@@@",
"@@@@@@@@XX##XX@@  $$$$  $$$$$$$$  $$$$$$$$  oooo  @@@@@@@@@@@@@@",
"@@@@@@@@@@XX##XX      $$$$$$$$$$  $$$$$$$$oo      @@@@XX@@@@@@@@",
"@@@@@@@@@@XX##XX      $$$$$$$$$$  $$$$$$$$oo      @@@@XX@@@@@@@@",
"@@@@XXXX@@..++..@@XX  $$$$$$$$$$  $$$$$$oooo  @@@@@@XX##XX@@@@@@",
"@@@@XXXX@@..++..@@XX  $$$$$$$$$$  $$$$$$oooo  @@@@@@XX##XX@@@@@@",
"@@@@..##....++....##..    $$$$$$  oooooo    @@XXXX@@..++..@@XXXX",
"@@@@..##....++....##..    $$$$$$  oooooo    @@XXXX@@..++..@@XXXX",
"@@@@@@..++..++..++..@@@@@@              OOOOOO..##....++....##..",
"@@@@@@..++..++..++..@@@@@@              OOOOOO..##....++....##..",
"@@@@@@@@@@@@@@@@@@@@@@@@@@@@@@OOOOOOOOOOOOOOOOOO..++..++..++..@@",
"@@@@@@@@@@@@@@@@@@@@@@@@@@@@@@OOOOOOOOOOOOOOOOOO..++..++..++..@@",
"@@@@@@@@@@@@@@@@@@@@@@@@@@@@@@@@OOOOOOOOOOOOOOOO@@@@@@@@@@@@@@@@",
"@@@@@@@@@@@@@@@@@@@@@@@@@@@@@@@@OOOOOOOOOOOOOOOO@@@@@@@@@@@@@@@@",
"@@@@@@@@@@@@@@@@@@@@@@@@@@@@@@@@@@@@@@@@@@@@@@@@@@@@@@@@@@@@@@@@",
"@@@@@@@@@@@@@@@@@@@@@@@@@@@@@@@@@@@@@@@@@@@@@@@@@@@@@@@@@@@@@@@@",
"@@@@@@@@@@@@@@@@@@@@@@@@@@@@@@@@@@@@@@@@@@@@@@@@@@@@@@@@@@@@@@@@",
"@@@@@@@@@@@@@@@@@@@@@@@@@@@@@@@@@@@@@@@@@@@@@@@@@@@@@@@@@@@@@@@@"
};
