/* XPM */
static char *result[] = {
/* columns rows colors chars-per-pixel */
"64 64 15 1 ",
"  c #222120",
". c #1A6303",
"X c #237E06",
"o c #6B4117",
"O c #7E4C1A",
"+ c #804C18",
"@ c #9A5C1D",
"# c #96632E",
"$ c #986A3C",
"% c #2AB001",
"& c #34D203",
"* c #72F749",
"= c #E8BC13",
"- c #7CB0A3",
"; c #92CCBE",
/* pixels */
"&&&&&&&&&&&&&&&&&&&&&&&&&&&&&&&&&&&&&&&&&&&&&&&&&&&&&&&&&&&&&&&&",
"&&&&&&&&&&&&&&&&&&&&&&&&&&&&&&&&&&&&&&&&&&&&&&&&&&&&&&&&&&&&&&&&",
"&&&&&&&&XX&&&&&&&&&&&&&&&&&&&&&&&&&&&&&&&&&&&&&&&&&&&&&&&&&&&&&&",
"&&&&&&&&XX&&&&&&&&&&&&&&&&&&&&&&&&&&&&&&&&&&&&&&&&&&&&&&&&&&&&&&",
"&&&&&&XX**XX&&&&&&&&&&&&&&&&&&&&&&&&&&&&&&&&&&&&&&&&&&&&&&&&&&&&",
"&&&&&&XX**XX&&&&&&&&&&&&&&&&&&&&&&&&&&&&&&&&&&&&&&&&&&&&&&&&&&&&",
"XXXX&&..%%..&&XXXX&&&&&&&&            &&&&&&&&&&&&&&&&&&&&&&&&&&",
"XXXX&&..%%..&&XXXX&&&&&&&&            &&&&&&&&&&&&&&&&&&&&&&&&&&",
"..**....%%....**..&&&&&&  ----;;;;----  &&&&&&&&&&XX&&&&&&&&&&&&",
"..**....%%....**..&&&&&&  ----;;;;----  &&&&&&&&&&XX&&&&&&&&&&&&",
"&&..%%..%%..%%..&&&&    ;;------------;;    &&&&XX**XX&&&&&&&&&&",
"&&..%%..%%..%%..&&&&    ;;------------;;    &&&&XX**XX&&&&&&&&&&",
"&&&&&&&&&&&&&&&&    ------------------------    ..%%..&&XXXX&&&&",
"&&&&&&&&&&&&&&&&    ------------------------    ..%%..&&XXXX&&&&",
"&&&&&&&&&&&&&&  --;;------oooooooooooo------;;--  %%....**..&&&&",
"&&&&&&&&&&&&&&  --;;------oooooooooooo------;;--  %%....**..&&&&",
"&&&&&&&&&&    --------oooo++@@@@@@@@++@@@@--------    %%..&&&&&&",
"&&&&&&&&&&    --------oooo++@@@@@@@@++@@@@--------    %%..&&&&&&",
"&&&&&&&&  --;;------oo@@@@++@@@@@@@@++@@@@@@------;;--  &&&&&&&&",
"&&&&&&&&  --;;------oo@@@@++@@@@@@@@++@@@@@@------;;--  &&&&&&&&",
"&&&&&&  --------oooo@@@@@@++@@@@@@@@++@@@@@@++@@--------  &&&&&&",
"&&&&&&  --------oooo@@@@@@++@@@@@@@@++@@@@@@++@@--------  &&&&&&",
"&&&&&&  ;;--oooo@@++@@@@@@++@@@@@@@@++@@@@@@++@@@@##--;;  &&&&&&",
"&&&&&&  ;;--oooo@@++@@@@@@++@@@@@@@@++@@@@@@++@@@@##--;;  &&&&&&",
"&&&&&&  ----oo@@@@++@@@@@@++@@@@@@@@++@@@@@@++@@@@##----  &&&&&&",
"&&&&&&  ----oo@@@@++@@@@@@++@@@@@@@@++@@@@@@++@@@@##----  &&&&&&",
"&&&&&&  ----oo$$$$$$$$$$$$$$$$$$$$$$$$$$$$$$$$$$$$$$----  &&&&&&",
"&&&&&&  ----oo$$$$$$$$$$$$$$$$$$$$$$$$$$$$$$$$$$$$$$----  &&&&&&",
"&&&&&&  ;;--oo@@@@--@@@@@@--@@@@@@@@--@@@@@@--@@@@##--;;  &&&&&&",
"&&&&&&  ;;--oo@@@@--@@@@@@--@@@@@@@@--@@@@@@--@@@@##--;;  &&&&&&",
"&&&&&&  ----oo@@@@@@@@@@@@@@@@@@@@@@@@@@@@@@@@@@@@##----  &&&&&&",
"&&&&&&  ----oo@@@@@@@@@@@@@@@@@@@@@@@@@@@@@@@@@@@@##----  &&&&&&",
"&&&&&&  ----ooOOOOOOOOOOOOOOOOOOOOOOOOOOOOOOOOOOOOOO----  &&&&&&",
"&&&&&&  ----ooOOOOOOOOOOOOOOOOOOOOOOOOOOOOOOOOOOOOOO----  &&&&&&",
"&&&&&&  ;;--oo@@@@++@@@@@@++@@@@@@@@++@@@@@@++@@@@##--;;  &&&&&&",
"&&&&&&  ;;--oo@@@@++@@@@@@++@@@@@@@@++@@@@@@++@@@@##--;;  &&&&&&",
"&&&&&&  ----oo@@==++==@@@@++@@@@@@@@++@@@@@@++@@@@##----  &&&&&&",
"&&&&&&  ----oo@@==++==@@@@++@@@@@@@@++@@@@@@++@@@@##----  &&&&&&",
"&&&&&&  ----oo==@@++@@==@@++@@@@@@@@++@@@@@@++@@@@##----  &&&&&&",
"&&&&&&  ----oo==@@++@@==@@++@@@@@@@@++@@@@@@++@@@@##----  &&&&&&",
"&&&&&&  ;;--oo@@======@@@@++@@@@@@@@++@@@@@@++@@@@##--;;  &&&&&&",
"&&&&&&  ;;--oo@@======@@@@++@@@@@@@@++@@@@@@++@@@@##--;;  &&&&&&",
"&&&&&&  ----oo@@@@++@@@@@@++@@@@@@@@++@@@@@@++@@@@##----  &&&&&&",
"&&&&&&  ----oo@@@@++@@@@@@++@@@@@@@@++@@@@@@++@@@@##----  &&&&&&",
"&&&&&&  ----oo$$$$$$$$$$$$$$$$$$$$$$$$$$$$$$$$$$$$$$----  &&&&&&",
"&&&&&&  ----oo$$$$$$$$$$$$$$$$$$$$$$$$$$$$$$$$$$$$$$----  &&&&&&",
"&&&&&&  ;;--oo@@@@--@@@@@@--@@@@@@@@--@@@@@@--@@@@##--;;  &&&&&&",
"&&&&&&  ;;--oo@@@@--@@@@@@--@@@@@@@@--@@@@@@--@@@@##--;;  &&&&&&",
"&&&&&&  ----oo@@@@@@@@@@@@@@@@@@@@@@@@@@@@@@@@@@@@##----  &&&&&&",
"&&&&&&  ----oo@@@@@@@@@@@@@@@@@@@@@@@@@@@@@@@@@@@@##----  &&&&&&",
"&&&&XX  ----ooOOOOOOOOOOOOOOOOOOOOOOOOOOOOOOOOOOOOOO----  &&&&&&",
"&&&&XX  ----ooOOOOOOOOOOOOOOOOOOOOOOOOOOOOOOOOOOOOOO----  &&&&&&",
"&&&&..  ;;--oo@@@@++@@@@@@++@@@@@@@@++@@@@@@++@@@@##--;;  &&XXXX",
"&&&&..  ;;--oo@@@@++@@@@@@++@@@@@@@@++@@@@@@++@@@@##--;;  &&XXXX",
"&&&&&&  ----oo@@@@++@@@@@@++@@@@@@@@++@@@@@@++@@@@##----  ..**..",
"&&&&&&  ----oo@@@@++@@@@@@++@@@@@@@@++@@@@@@++@@@@##----  ..**..",
"&&&&&&  ----oo@@@@++@@@@@@++@@@@@@@@++@@@@@@++@@@@##----  %%..&&",
"&&&&&&  ----oo@@@@++@@@@@@++@@@@@@@@++@@@@@@++@@@@##----  %%..&&",
"&&&&&&                                                    &&&&&&",
"&&&&&&                                                    &&&&&&",
"&&&&&&&&&&&&&&&&&&&&&&&&&&&&&&&&&&&&&&&&&&&&&&&&&&&&&&&&&&&&&&&&",
"&&&&&&&&&&&&&&&&&&&&&&&&&&&&&&&&&&&&&&&&&&&&&&&&&&&&&&&&&&&&&&&&",
"&&&&&&&&&&&&&&&&&&&&&&&&&&&&&&&&&&&&&&&&&&&&&&&&&&&&&&&&&&&&&&&&",
"&&&&&&&&&&&&&&&&&&&&&&&&&&&&&&&&&&&&&&&&&&&&&&&&&&&&&&&&&&&&&&&&"
};
