/* XPM */
static char *result[] = {
/* columns rows colors chars-per-pixel */
"64 64 5 1 ",
"  c #1A6303",
". c #237E06",
"X c #2AB001",
"o c #34D203",
"O c #72F749",
/* pixels */
"oooooooooooooooooooooooooooooooooooooooooooooooooooooooooooooooo",
"oooooooooooooooooooooooooooooooooooooooooooooooooooooooooooooooo",
"oooooooo..oooooooooooooooooooooooooooooooooooooooooooooooooooooo",
"oooooooo..oooooooooooooooooooooooooooooooooooooooooooooooooooooo",
"oooooo..OO..oooooooooooooooooooooooooooooooooooooooooooooooooooo",
"oooooo..OO..oooooooooooooooooooooooooooooooooooooooooooooooooooo",
"....oo  XX  oo....oooooooooooooooooooooooooooooooooooooooooooooo",
"....oo  XX  oo....oooooooooooooooooooooooooooooooooooooooooooooo",
"  OO    XX    OO  oooooooooooooooooooooooooooooooo..oooooooooooo",
"  OO    XX    OO  oooooooooooooooooooooooooooooooo..oooooooooooo",
"oo  XX  XX  XX  oooooooooooooooooooooooooooooooo..OO..oooooooooo",
"oo  XX  XX  XX  oooooooooooooooooooooooooooooooo..OO..oooooooooo",
"oooooooooooooooooooooooooooooooooooooooooo....oo  XX  oo....oooo",
"oooooooooooooooooooooooooooooooooooooooooo....oo  XX  oo....oooo",
"oooooooooooooooooooooooooooooooooooooooooo  OO    XX    OO  oooo",
"oooooooooooooooooooooooooooooooooooooooooo  OO    XX    OO  oooo",
"oooooooooooooooooooooooooooooooooooooooooooo  XX  XX  XX  oooooo",
"oooooooooooooooooooooooooooooooooooooooooooo  XX  XX  XX  oooooo",
"oooooooooooooooooooooooooooooooooooooooooooooooooooooooooooooooo",
"oooooooooooooooooooooooooooooooooooooooooooooooooooooooooooooooo",
"oooooooooooooooooooooooooooooooooooooooooooooooooooooooooooooooo",
"oooooooooooooooooooooooooooooooooooooooooooooooooooooooooooooooo",
"oooooooooooooooooo..oooooooooooooooooooooooooooooooooooooooooooo",
"oooooooooooooooooo..oooooooooooooooooooooooooooooooooooooooooooo",
"oooooooooooooooo..OO..oooooooooooooooooooooooooooooooooooooooooo",
"oooooooooooooooo..OO..oooooooooooooooooooooooooooooooooooooooooo",
"oooooooooo....oo  XX  oo....oooooooooooooooooooooooooooooooooooo",
"oooooooooo....oo  XX  oo....oooooooooooooooooooooooooooooooooooo",
"oooooooooo  OO    XX    OO  oooooooooooooooooooooooooooooooooooo",
"oooooooooo  OO    XX    OO  oooooooooooooooooooooooooooooooooooo",
"oooooooooooo  XX  XX  XX  oooooooooooooooo....oooooooooooooooooo",
"oooooooooooo  XX  XX  XX  oooooooooooooooo....oooooooooooooooooo",
"oooooooooooooooooooooooooooooooooooooooo..OO..oooooooooooooooooo",
"oooooooooooooooooooooooooooooooooooooooo..OO..oooooooooooooooooo",
"oooooooooooooooooooooooooooooooooooooo..OO..oooooooooooooooooooo",
"oooooooooooooooooooooooooooooooooooooo..OO..oooooooooooooooooooo",
"oooooooooooooooooooooooooooooooo....oo  XX  oo....oooooooooooooo",
"oooooooooooooooooooooooooooooooo....oo  XX  oo....oooooooooooooo",
"oooooooooooooooooooooooooooooooo  OO    XX    OO  oooooooooooooo",
"oooooooooooooooooooooooooooooooo  OO    XX    OO  oooooooooooooo",
"oooooooooooooooooooooooooooooooooo  XX  XX  XX  oooooooooooooooo",
"oooooooooooooooooooooooooooooooooo  XX  XX  XX  oooooooooooooooo",
"oooooooooooooooooooooooooooooooooooooooooooooooooooooooooooooooo",
"oooooooooooooooooooooooooooooooooooooooooooooooooooooooooooooooo",
"oooooooo....oooooooooooooooooooooooooooooooooooooooooooooooooooo",
"oooooooo....oooooooooooooooooooooooooooooooooooooooooooooooooooo",
"oooooooo..OO..oooooooooooooooooooooooooooooooooooooooooooooooooo",
"oooooooo..OO..oooooooooooooooooooooooooooooooooooooooooooooooooo",
"oooooooooo..OO..oooooooooooooooooooooooooooooooooooooo..oooooooo",
"oooooooooo..OO..oooooooooooooooooooooooooooooooooooooo..oooooooo",
"oooo....oo  XX  oo....oooooooooooooooooooooooooooooo..OO..oooooo",
"oooo....oo  XX  oo....oooooooooooooooooooooooooooooo..OO..oooooo",
"oooo  OO    XX    OO  oooooooooooooooooooooooo....oo  XX  oo....",
"oooo  OO    XX    OO  oooooooooooooooooooooooo....oo  XX  oo....",
"oooooo  XX  XX  XX  oooooooooooooooooooooooooo  OO    XX    OO  ",
"oooooo  XX  XX  XX  oooooooooooooooooooooooooo  OO    XX    OO  ",
"oooooooooooooooooooooooooooooooooooooooooooooooo  XX  XX  XX  oo",
"oooooooooooooooooooooooooooooooooooooooooooooooo  XX  XX  XX  oo",
"oooooooooooooooooooooooooooooooooooooooooooooooooooooooooooooooo",
"oooooooooooooooooooooooooooooooooooooooooooooooooooooooooooooooo",
"oooooooooooooooooooooooooooooooooooooooooooooooooooooooooooooooo",
"oooooooooooooooooooooooooooooooooooooooooooooooooooooooooooooooo",
"oooooooooooooooooooooooooooooooooooooooooooooooooooooooooooooooo",
"oooooooooooooooooooooooooooooooooooooooooooooooooooooooooooooooo"
};
