/* XPM */
static char *result[] = {
/* columns rows colors chars-per-pixel */
"64 64 4 1 ",
"  c #34102F",
". c gray39",
"X c #908E8E",
"o c #BBBBBB",
/* pixels */
"oooooo  oooooooooooooooooooo  oooooooooooooooooo  oooooooooooooo",
"oooooo  oooooooooooooooooooo  oooooooooooooooooo  oooooooooooooo",
"XXXX..  ooXXXXXXXXXXXXXXXX..  XXXXXXXXXXXXXXXX..  ooXXXXXXXXXXXX",
"XXXX..  ooXXXXXXXXXXXXXXXX..  XXXXXXXXXXXXXXXX..  ooXXXXXXXXXXXX",
"XXXX..  ooXXXXXXXXXXXXXXXX..  XXXXXXXXXXXXXXXX..  ooXXXXXXXXXXXX",
"XXXX..  ooXXXXXXXXXXXXXXXX..  XXXXXXXXXXXXXXXX..  ooXXXXXXXXXXXX",
"XXXX..  ooXXXXXXXXXXXXXXXX..  XXXXXXXXXXXXXXXX..  ooXXXXXXXXXXXX",
"XXXX..  ooXXXXXXXXXXXXXXXX..  XXXXXXXXXXXXXXXX..  ooXXXXXXXXXXXX",
"XXXX..  ooXXXXXXXXXXXXXXXX..  XXXXXXXXXXXXXXXX..  ooXXXXXXXXXXXX",
"XXXX..  ooXXXXXXXXXXXXXXXX..  XXXXXXXXXXXXXXXX..  ooXXXXXXXXXXXX",
"XXXX..  ooXXXXXXXXXXXXXXXX..  XXXXXXXXXXXXXXXX..  ooXXXXXXXXXXXX",
"XXXX..  ooXXXXXXXXXXXXXXXX..  XXXXXXXXXXXXXXXX..  ooXXXXXXXXXXXX",
"......  oo..................  ..................  oo............",
"......  oo..................  ..................  oo............",
"                                                                ",
"                                                                ",
"oooooooooooooooo  oooooooooooooooooo  oooooooooooooooooo  oooooo",
"oooooooooooooooo  oooooooooooooooooo  oooooooooooooooooo  oooooo",
"XXXXXXXXXXXXXX..  ooXXXXXXXXXXXXXX..  ooXXXXXXXXXXXXXX..  ooXXXX",
"XXXXXXXXXXXXXX..  ooXXXXXXXXXXXXXX..  ooXXXXXXXXXXXXXX..  ooXXXX",
"XXXXXXXXXXXXXX..  ooXXXXXXXXXXXXXX..  ooXXXXXXXXXXXXXX..  ooXXXX",
"XXXXXXXXXXXXXX..  ooXXXXXXXXXXXXXX..  ooXXXXXXXXXXXXXX..  ooXXXX",
"XXXXXXXXXXXXXX..  ooXXXXXXXXXXXXXX..  ooXXXXXXXXXXXXXX..  ooXXXX",
"XXXXXXXXXXXXXX..  ooXXXXXXXXXXXXXX..  ooXXXXXXXXXXXXXX..  ooXXXX",
"XXXXXXXXXXXXXX..  ooXXXXXXXXXXXXXX..  ooXXXXXXXXXXXXXX..  ooXXXX",
"XXXXXXXXXXXXXX..  ooXXXXXXXXXXXXXX..  ooXXXXXXXXXXXXXX..  ooXXXX",
"XXXXXXXXXXXXXX..  ooXXXXXXXXXXXXXX..  ooXXXXXXXXXXXXXX..  ooXXXX",
"XXXXXXXXXXXXXX..  ooXXXXXXXXXXXXXX..  ooXXXXXXXXXXXXXX..  ooXXXX",
"................  oo................  oo................  oo....",
"................  oo................  oo................  oo....",
"                                                                ",
"                                                                ",
"oooooo  oooooooooooooooooooo  oooooooooooooooooooo  oooooooooooo",
"oooooo  oooooooooooooooooooo  oooooooooooooooooooo  oooooooooooo",
"XXXX..  ooXXXXXXXXXXXXXXXX..  ooXXXXXXXXXXXXXXXX..  ooXXXXXXXXXX",
"XXXX..  ooXXXXXXXXXXXXXXXX..  ooXXXXXXXXXXXXXXXX..  ooXXXXXXXXXX",
"XXXX..  ooXXXXXXXXXXXXXXXX..  ooXXXXXXXXXXXXXXXX..  ooXXXXXXXXXX",
"XXXX..  ooXXXXXXXXXXXXXXXX..  ooXXXXXXXXXXXXXXXX..  ooXXXXXXXXXX",
"XXXX..  ooXXXXXXXXXXXXXXXX..  ooXXXXXXXXXXXXXXXX..  ooXXXXXXXXXX",
"XXXX..  ooXXXXXXXXXXXXXXXX..  ooXXXXXXXXXXXXXXXX..  ooXXXXXXXXXX",
"XXXX..  ooXXXXXXXXXXXXXXXX..  ooXXXXXXXXXXXXXXXX..  ooXXXXXXXXXX",
"XXXX..  ooXXXXXXXXXXXXXXXX..  ooXXXXXXXXXXXXXXXX..  ooXXXXXXXXXX",
"XXXX..  ooXXXXXXXXXXXXXXXX..  ooXXXXXXXXXXXXXXXX..  ooXXXXXXXXXX",
"XXXX..  ooXXXXXXXXXXXXXXXX..  ooXXXXXXXXXXXXXXXX..  ooXXXXXXXXXX",
"......  oo..................  oo..................  ooXXXXXXXXXX",
"......  oo..................  oo..................  ooXXXXXXXXXX",
"                                                                ",
"                                                                ",
"oooooooooooooooo  oooooooooooooooooo  oooooooooooooooooo  oooooo",
"oooooooooooooooo  oooooooooooooooooo  oooooooooooooooooo  oooooo",
"XXXXXXXXXXXXXX..  ooXXXXXXXXXXXXXX..  ooXXXXXXXXXXXXXX..  ooXXXX",
"XXXXXXXXXXXXXX..  ooXXXXXXXXXXXXXX..  ooXXXXXXXXXXXXXX..  ooXXXX",
"XXXXXXXXXXXXXX..  ooXXXXXXXXXXXXXX..  ooXXXXXXXXXXXXXX..  ooXXXX",
"XXXXXXXXXXXXXX..  ooXXXXXXXXXXXXXX..  ooXXXXXXXXXXXXXX..  ooXXXX",
"XXXXXXXXXXXXXX..  ooXXXXXXXXXXXXXX..  ooXXXXXXXXXXXXXX..  ooXXXX",
"XXXXXXXXXXXXXX..  ooXXXXXXXXXXXXXX..  ooXXXXXXXXXXXXXX..  ooXXXX",
"XXXXXXXXXXXXXX..  ooXXXXXXXXXXXXXX..  ooXXXXXXXXXXXXXX..  ooXXXX",
"XXXXXXXXXXXXXX..  ooXXXXXXXXXXXXXX..  ooXXXXXXXXXXXXXX..  ooXXXX",
"XXXXXXXXXXXXXX..  ooXXXXXXXXXXXXXX..  ooXXXXXXXXXXXXXX..  ooXXXX",
"XXXXXXXXXXXXXX..  ooXXXXXXXXXXXXXX..  ooXXXXXXXXXXXXXX..  ooXXXX",
"................  oo................  oo................  oo....",
"................  oo................  oo................  oo....",
"                                                                ",
"                                                                "
};
